<svg xmlns="http://www.w3.org/2000/svg" width="1200" height="630" viewBox="0 0 1200 630" role="img" aria-label="상환메이트 대출 상환 계산기">
  <defs>
    <linearGradient id="sky" x1="0" y1="0" x2="1" y2="1">
      <stop offset="0" stop-color="#0f3d3e"/>
      <stop offset="1" stop-color="#1b6b73"/>
    </linearGradient>
    <linearGradient id="accent" x1="0" y1="0" x2="0" y2="1">
      <stop offset="0" stop-color="#f6c453"/>
      <stop offset="1" stop-color="#f0a83b"/>
    </linearGradient>
  </defs>
  <rect width="1200" height="630" fill="url(#sky)"/>
  <circle cx="1020" cy="120" r="140" fill="#0b2f31" opacity="0.35"/>
  <circle cx="170" cy="520" r="220" fill="#0b2f31" opacity="0.25"/>
  <rect x="80" y="100" width="1040" height="430" rx="36" fill="#0a2a2b" opacity="0.45"/>

  <rect x="140" y="160" width="920" height="70" rx="14" fill="#e8f1f1"/>
  <rect x="140" y="260" width="240" height="190" rx="20" fill="#e8f1f1"/>
  <rect x="410" y="260" width="240" height="190" rx="20" fill="#e8f1f1"/>
  <rect x="680" y="260" width="240" height="190" rx="20" fill="url(#accent)"/>
  <rect x="940" y="260" width="120" height="190" rx="20" fill="#e8f1f1"/>

  <path d="M180 200 h120" stroke="#0f3d3e" stroke-width="10" stroke-linecap="round"/>
  <path d="M340 200 h120" stroke="#0f3d3e" stroke-width="10" stroke-linecap="round"/>
  <path d="M500 200 h120" stroke="#0f3d3e" stroke-width="10" stroke-linecap="round"/>
  <path d="M660 200 h120" stroke="#0f3d3e" stroke-width="10" stroke-linecap="round"/>

  <text x="140" y="520" fill="#e8f1f1" font-family="Pretendard, 'Apple SD Gothic Neo', 'Noto Sans KR', sans-serif" font-size="64" font-weight="700">상환메이트</text>
  <text x="140" y="570" fill="#d7e4e4" font-family="Pretendard, 'Apple SD Gothic Neo', 'Noto Sans KR', sans-serif" font-size="30">대출 상환 계산기</text>
</svg>
