<svg xmlns="http://www.w3.org/2000/svg" width="900" height="540" viewBox="0 0 900 540" role="img" aria-label="대출 상환 계산기 사용 흐름">
  <defs>
    <linearGradient id="panel" x1="0" y1="0" x2="1" y2="1">
      <stop offset="0" stop-color="#f5f7f8"/>
      <stop offset="1" stop-color="#eef2f2"/>
    </linearGradient>
    <linearGradient id="accent" x1="0" y1="0" x2="0" y2="1">
      <stop offset="0" stop-color="#f6c453"/>
      <stop offset="1" stop-color="#f0a83b"/>
    </linearGradient>
  </defs>
  <rect width="900" height="540" rx="28" fill="url(#panel)"/>
  <rect x="40" y="50" width="260" height="440" rx="24" fill="#ffffff" stroke="#dfe6e6"/>
  <rect x="320" y="50" width="260" height="440" rx="24" fill="#ffffff" stroke="#dfe6e6"/>
  <rect x="600" y="50" width="260" height="440" rx="24" fill="#ffffff" stroke="#dfe6e6"/>

  <rect x="70" y="90" width="200" height="46" rx="12" fill="#e8f1f1"/>
  <rect x="70" y="160" width="200" height="120" rx="16" fill="#e8f1f1"/>
  <rect x="70" y="300" width="200" height="60" rx="16" fill="#e8f1f1"/>

  <rect x="350" y="90" width="200" height="46" rx="12" fill="#e8f1f1"/>
  <rect x="350" y="160" width="200" height="60" rx="16" fill="#e8f1f1"/>
  <rect x="350" y="240" width="200" height="60" rx="16" fill="#e8f1f1"/>
  <rect x="350" y="320" width="200" height="60" rx="16" fill="#e8f1f1"/>

  <rect x="630" y="90" width="200" height="46" rx="12" fill="#e8f1f1"/>
  <rect x="630" y="160" width="200" height="140" rx="16" fill="#e8f1f1"/>
  <rect x="630" y="320" width="200" height="100" rx="16" fill="url(#accent)"/>

  <text x="170" y="430" text-anchor="middle" font-family="Pretendard, 'Apple SD Gothic Neo', 'Noto Sans KR', sans-serif" font-size="24" fill="#0f3d3e">입력</text>
  <text x="450" y="430" text-anchor="middle" font-family="Pretendard, 'Apple SD Gothic Neo', 'Noto Sans KR', sans-serif" font-size="24" fill="#0f3d3e">계산</text>
  <text x="730" y="430" text-anchor="middle" font-family="Pretendard, 'Apple SD Gothic Neo', 'Noto Sans KR', sans-serif" font-size="24" fill="#0f3d3e">결과</text>

  <path d="M285 270 h50" stroke="#b6c5c5" stroke-width="8" stroke-linecap="round"/>
  <path d="M565 270 h50" stroke="#b6c5c5" stroke-width="8" stroke-linecap="round"/>
</svg>
